<?xml version="1.0" standalone="no"?>
<!DOCTYPE svg PUBLIC "-//W3C//DTD SVG 20010904//EN"
 "http://www.w3.org/TR/2001/REC-SVG-20010904/DTD/svg10.dtd">
<svg version="1.0" xmlns="http://www.w3.org/2000/svg"
 width="500.000000pt" height="500.000000pt" viewBox="0 0 500.000000 500.000000"
 preserveAspectRatio="xMidYMid meet">

<g transform="translate(0.000000,500.000000) scale(0.100000,-0.100000)"
fill="#000000" stroke="none">
<path d="M2682 4127 c-8 -9 -3 -24 19 -56 16 -24 29 -56 29 -70 0 -14 -19 -62
-41 -106 -23 -44 -50 -97 -60 -117 -10 -20 -19 -49 -19 -63 0 -53 62 -131 93
-119 20 7 23 54 5 72 -6 6 -12 33 -12 59 0 41 7 59 52 127 47 71 52 84 52 133
0 40 -6 63 -22 86 -43 63 -75 80 -96 54z"/>
<path d="M2403 4024 c-3 -8 -1 -26 6 -40 15 -34 14 -69 -4 -103 -8 -16 -11
-32 -7 -36 4 -5 2 -5 -4 -2 -19 11 -55 -68 -56 -121 0 -48 21 -114 40 -126 6
-3 18 -3 27 0 14 6 16 14 9 48 -13 70 -9 103 20 146 15 22 24 46 20 52 -4 7
-3 8 4 4 16 -10 36 65 28 107 -7 35 -46 87 -66 87 -6 0 -13 -7 -17 -16z"/>
<path d="M3005 4013 c4 -10 10 -38 12 -63 4 -40 0 -52 -36 -104 -22 -33 -38
-63 -35 -68 3 -4 0 -8 -5 -8 -16 0 -13 -102 4 -144 28 -66 75 -36 57 36 -12
46 -6 65 58 173 35 60 39 115 10 163 -14 23 -27 32 -46 32 -21 0 -25 -3 -19
-17z"/>
<path d="M1540 3470 c-110 -19 -222 -87 -270 -165 -10 -16 -86 -198 -169 -404
-147 -364 -151 -376 -151 -447 0 -56 5 -82 21 -111 31 -55 116 -123 154 -123
7 0 19 -24 28 -53 57 -194 99 -325 120 -370 44 -96 138 -167 250 -187 35 -7
391 -10 1003 -8 937 3 950 3 1000 24 78 32 142 81 174 132 31 50 35 60 100
272 53 173 60 190 75 190 40 0 134 80 161 135 22 47 20 150 -5 213 -12 28 -29
73 -39 100 -84 214 -238 585 -257 618 -54 92 -171 168 -286 184 -77 11 -1845
11 -1909 0z m382 -324 c27 -12 44 -12 75 -4 50 12 98 -7 128 -51 10 -16 31
-32 46 -35 42 -8 80 -47 98 -101 13 -39 23 -53 50 -66 52 -24 71 -56 71 -120
0 -53 2 -58 35 -83 51 -40 65 -81 65 -200 0 -90 -3 -104 -23 -127 -12 -15 -37
-32 -56 -38 -48 -16 -965 -15 -1012 0 -19 7 -43 19 -53 28 -30 25 -56 92 -56
144 0 41 5 53 30 79 26 25 30 37 30 82 0 58 16 88 61 111 19 11 29 23 29 39 0
79 27 118 101 145 37 14 46 23 60 61 20 54 67 90 117 90 24 0 45 9 69 30 38
34 80 39 135 16z m1260 -10 c172 -42 348 -176 379 -290 16 -60 6 -146 -24
-192 -81 -130 -394 -262 -494 -211 -30 16 -31 17 -38 118 -4 56 -14 118 -22
136 -17 41 -67 91 -144 143 -69 47 -96 80 -105 126 -12 66 36 131 122 163 61
24 241 27 326 7z"/>
<path d="M1906 2978 c-18 -26 -21 -64 -5 -73 36 -23 85 31 66 73 -13 28 -41
28 -61 0z"/>
<path d="M1689 2883 c-19 -5 -39 -44 -39 -78 0 -28 30 -41 60 -25 38 20 19
112 -21 103z"/>
<path d="M2090 2805 c-33 -39 42 -97 78 -61 15 15 15 19 2 44 -18 32 -60 41
-80 17z"/>
<path d="M1930 2655 c-28 -33 12 -85 53 -69 17 6 36 52 30 72 -6 17 -68 15
-83 -3z"/>
<path d="M1524 2585 c-23 -35 -15 -60 20 -60 33 0 73 44 63 69 -10 26 -64 20
-83 -9z"/>
<path d="M2222 2558 c-40 -20 -38 -88 2 -88 22 0 58 47 54 71 -3 27 -23 33
-56 17z"/>
<path d="M1763 2513 c-18 -7 -16 -58 1 -73 38 -31 89 9 68 54 -11 25 -37 32
-69 19z"/>
<path d="M2936 3024 c-10 -26 8 -46 100 -109 103 -70 160 -138 170 -202 14
-95 69 -75 69 25 -1 91 -58 160 -214 261 -67 43 -114 52 -125 25z"/>
</g>
</svg>
